<svg viewBox="0 0 36 36" fill="none" xmlns="http://www.w3.org/2000/svg">
<g opacity="0.5" clip-path="url(#clip0_1_1112)">
<path d="M14.0387 33.1108C14.0387 33.4213 13.792 33.6758 13.4815 33.6758C13.171 33.6758 12.9165 33.4213 12.9165 33.1108V26.0345C12.9165 25.5572 13.1232 25.1272 13.4576 24.817C13.7842 24.5146 14.2221 24.3315 14.7075 24.3315H21.2899C21.7753 24.3315 22.2211 24.5144 22.5392 24.817C22.8733 25.1275 23.0809 25.5572 23.0809 26.0345V33.1108C23.0809 33.4213 22.8339 33.6758 22.5234 33.6758C22.2129 33.6758 21.9584 33.4213 21.9584 33.1108V26.0345C21.9584 25.8835 21.8946 25.74 21.7832 25.6368C21.6561 25.5254 21.4887 25.4537 21.2899 25.4537H18.5595V33.111C18.5595 33.4215 18.3131 33.6761 18.0026 33.6761C17.6924 33.6761 17.4376 33.4215 17.4376 33.111V25.4534H14.7075C14.5165 25.4534 14.3492 25.5254 14.2221 25.6365C14.1107 25.7398 14.039 25.8832 14.039 26.0342L14.0387 33.1108Z" fill="#C39B54"/>
<path d="M12.4546 16.7864H16.1317C16.4422 16.7864 16.6888 17.0333 16.6888 17.3435V20.7663C16.6888 21.0768 16.4422 21.3229 16.1317 21.3229H12.4546C12.1441 21.3229 11.8975 21.0766 11.8975 20.7663V17.3435C11.8972 17.0333 12.1441 16.7864 12.4546 16.7864ZM12.4546 9.98096H16.1317C16.4422 9.98096 16.6888 10.2279 16.6888 10.5381V13.9606C16.6888 14.2711 16.4422 14.5178 16.1317 14.5178H12.4546C12.1441 14.5178 11.8975 14.2709 11.8975 13.9606V10.5384C11.8972 10.2279 12.1441 9.98096 12.4546 9.98096ZM15.5666 11.1037H13.0196V13.3956H15.5666V11.1037ZM21.7111 13.3956C22.0216 13.3956 22.268 13.6504 22.268 13.9609C22.268 14.2714 22.0213 14.5181 21.7111 14.5181H19.8726C19.5621 14.5181 19.3073 14.2711 19.3073 13.9609V10.5384C19.3073 10.2279 19.5618 9.98124 19.8726 9.98124C20.1831 9.98124 20.4297 10.2282 20.4297 10.5384V13.3956H21.7111ZM19.8726 16.7864H23.5418C23.8523 16.7864 24.1068 17.0333 24.1068 17.3435V20.7663C24.1068 21.0768 23.8523 21.3229 23.5418 21.3229H19.8726C19.5621 21.3229 19.3073 21.0766 19.3073 20.7663V17.3435C19.3073 17.0333 19.5621 16.7864 19.8726 16.7864ZM22.9849 17.9088H20.43V20.201H22.9849V17.9088ZM15.5666 17.9088H13.0196V20.201H15.5666V17.9088Z" fill="#C39B54"/>
<path d="M27.4579 17.2401C27.299 17.5028 26.957 17.5981 26.6941 17.4389C26.6063 17.3832 26.5349 17.3118 26.4871 17.2322L21.6636 9.05766C21.4167 8.63578 21.21 8.09466 21.0829 7.61709C20.9552 7.1235 20.8916 6.61444 20.8916 6.08878C20.8916 4.40916 21.5683 2.88928 22.6744 1.78256C23.773 0.684562 25.2932 0 26.9807 0C28.66 0 30.1802 0.684563 31.2866 1.78284C32.3849 2.88956 33.0697 4.40944 33.0697 6.08906C33.0697 6.61444 32.998 7.12378 32.8709 7.61737C32.7432 8.127 32.5441 8.60428 32.2977 9.05006L27.4579 17.2401ZM26.9807 15.8549L31.3263 8.49234C31.5254 8.13431 31.6846 7.74422 31.7881 7.33837C31.8913 6.94012 31.947 6.52641 31.947 6.08878C31.947 4.71966 31.3904 3.47822 30.4907 2.57878C29.5912 1.67962 28.3495 1.12219 26.9807 1.12219C25.6037 1.12219 24.3619 1.67934 23.4628 2.57878C22.5709 3.47822 22.0141 4.71966 22.0141 6.08878C22.0141 6.52669 22.0695 6.94012 22.1654 7.33837C22.2686 7.73606 22.4278 8.11828 22.6188 8.47631L26.9807 15.8549Z" fill="#C39B54"/>
<path d="M26.9807 2.84131C27.8723 2.84131 28.684 3.20778 29.2726 3.79643C29.8618 4.3775 30.228 5.18918 30.228 6.08862C30.228 6.98778 29.8616 7.80003 29.2726 8.38896C28.6837 8.97003 27.8723 9.33593 26.9807 9.33593C26.0813 9.33593 25.2693 8.97003 24.6804 8.38896C24.0914 7.80003 23.7334 6.98806 23.7334 6.08862C23.7334 5.18918 24.0914 4.3775 24.6804 3.79643C25.2693 3.2075 26.081 2.84131 26.9807 2.84131ZM28.477 4.5845C28.0947 4.20256 27.5618 3.96378 26.9807 3.96378C26.3918 3.96378 25.8582 4.20256 25.4763 4.5845C25.0941 4.97459 24.8556 5.49968 24.8556 6.0889C24.8556 6.67784 25.0941 7.21109 25.4763 7.59331C25.858 7.97525 26.3918 8.21403 26.9807 8.21403C27.5618 8.21403 28.0947 7.97525 28.477 7.59331C28.8668 7.21137 29.1056 6.67784 29.1056 6.0889C29.1056 5.49968 28.8668 4.97459 28.477 4.5845Z" fill="#C39B54"/>
<path d="M29.5748 27.3402C29.2643 27.3402 29.0182 27.0857 29.0182 26.7752C29.0182 26.4647 29.2646 26.2178 29.5748 26.2178H31.6125C32.313 26.2178 32.934 26.6239 33.2046 27.2685L35.8391 33.6838C35.9505 33.9544 35.9901 34.2252 35.9583 34.4958C35.9026 35.0451 35.5362 35.5541 35.0507 35.809C34.8041 35.9364 34.5335 36.0002 34.2472 36.0002H1.75748C1.47089 36.0002 1.20032 35.9364 0.953668 35.809C0.460074 35.5541 0.102042 35.0451 0.0384799 34.4958C0.0145736 34.2252 0.0542299 33.9544 0.15773 33.6838L2.80036 27.2685C3.07092 26.6239 3.69164 26.2178 4.39223 26.2178H6.41386C6.72436 26.2178 6.97101 26.465 6.97101 26.7752C6.97101 27.0854 6.72436 27.3402 6.41386 27.3402H4.39223C4.14557 27.3402 3.93042 27.4595 3.83507 27.6983L1.20061 34.1133C1.16067 34.2013 1.14492 34.2885 1.15279 34.3763C1.1767 34.5594 1.30411 34.7264 1.46329 34.8142C1.55076 34.8541 1.64611 34.878 1.75776 34.878H34.2478C34.3591 34.878 34.4545 34.8541 34.5344 34.8142C34.7017 34.7264 34.8288 34.5596 34.8449 34.3763C34.8527 34.2885 34.8449 34.2013 34.8049 34.1133L32.1705 27.6983C32.0748 27.4592 31.86 27.3402 31.6133 27.3402H29.5748Z" fill="#C39B54"/>
<path d="M26.4153 19.6516C26.4153 19.3411 26.6699 19.0863 26.9804 19.0863C27.2909 19.0863 27.5375 19.3411 27.5375 19.6516V33.1108C27.5375 33.4213 27.2906 33.6759 26.9804 33.6759H9.02395C8.71345 33.6759 8.4668 33.4213 8.4668 33.1108V8.50877C8.4668 8.03121 8.6738 7.60118 9.0082 7.29096C9.32658 6.98833 9.77236 6.79736 10.2578 6.79736H19.1163C19.4268 6.79736 19.6735 7.05189 19.6735 7.36268C19.6735 7.67318 19.4265 7.92771 19.1163 7.92771H10.2578C10.0587 7.92771 9.89161 7.99155 9.76448 8.1108C9.65311 8.21402 9.58927 8.35746 9.58927 8.50877V32.5534H26.4156L26.4153 19.6516Z" fill="#C39B54"/>
</g>
<defs>
<clipPath id="clip0_1_1112">
<rect width="36" height="36" fill="white"/>
</clipPath>
</defs>
</svg>
