<svg  viewBox="0 0 33 35" fill="none" xmlns="http://www.w3.org/2000/svg">
<path d="M27.3035 13.7095L30.5692 15.5328C31.9888 16.3254 31.9888 18.3622 30.5692 19.1548L27.2396 21.0137L18.4314 25.9315C17.0401 26.7084 15.3438 26.7084 13.9525 25.9315L1.81465 19.1548C0.395115 18.3622 0.395115 16.3254 1.81465 15.5328L4.99601 13.7566" stroke="#C39B54" stroke-width="1.5" stroke-miterlimit="10" stroke-linecap="round" stroke-linejoin="round"/>
<path d="M13.9525 18.5081L1.81465 11.7313C0.395115 10.9388 0.395115 8.90196 1.81465 8.1094L13.9525 1.33261C15.3438 0.555797 17.0401 0.555797 18.4314 1.33261L30.5692 8.1094C31.9888 8.90196 31.9888 10.9388 30.5692 11.7313L18.4314 18.5081C17.0401 19.2849 15.3438 19.2849 13.9525 18.5081Z" stroke="#C39B54" stroke-width="1.5" stroke-miterlimit="10" stroke-linecap="round" stroke-linejoin="round"/>
<path d="M5.0285 21.1616L1.81465 22.956C0.395115 23.7486 0.395115 25.7854 1.81465 26.5779L13.9525 33.3547C15.3438 34.1315 17.0401 34.1315 18.4314 33.3547L18.579 33.2723" stroke="#C39B54" stroke-width="1.5" stroke-miterlimit="10" stroke-linecap="round" stroke-linejoin="round"/>
<path d="M24.7188 29.8443L30.5692 26.5779C31.9887 25.7853 31.9887 23.7485 30.5692 22.956L27.3772 21.1738" stroke="#C39B54" stroke-width="1.5" stroke-miterlimit="10" stroke-linecap="round" stroke-linejoin="round"/>
</svg>
