<svg viewBox="0 0 34 34" fill="none" xmlns="http://www.w3.org/2000/svg">
<path d="M4.99219 33.6094H28.6172C29.9408 33.608 31.2097 33.0815 32.1456 32.1456C33.0815 31.2097 33.608 29.9408 33.6094 28.6172V4.99219C33.608 3.66861 33.0815 2.39965 32.1456 1.46374C31.2097 0.52783 29.9408 0.00141452 28.6172 0H4.99219C3.66861 0.00141452 2.39965 0.52783 1.46374 1.46374C0.52783 2.39965 0.00141452 3.66861 0 4.99219V28.6172C0.00141452 29.9408 0.52783 31.2097 1.46374 32.1456C2.39965 33.0815 3.66861 33.608 4.99219 33.6094ZM0.984375 4.99219C0.98564 3.92964 1.4083 2.91097 2.15963 2.15963C2.91097 1.4083 3.92964 0.98564 4.99219 0.984375H28.6172C29.6797 0.98564 30.6984 1.4083 31.4497 2.15963C32.2011 2.91097 32.6237 3.92964 32.625 4.99219V28.6172C32.6237 29.6797 32.2011 30.6984 31.4497 31.4497C30.6984 32.2011 29.6797 32.6237 28.6172 32.625H4.99219C3.92964 32.6237 2.91097 32.2011 2.15963 31.4497C1.4083 30.6984 0.98564 29.6797 0.984375 28.6172V4.99219Z" fill="#C39B54"/>
<path d="M10.3359 28.5223H13.7604C13.891 28.5223 14.0162 28.4704 14.1085 28.3781C14.2008 28.2858 14.2526 28.1606 14.2526 28.0301V19.0093H17.9297C19.7758 19.0093 21.5464 18.2759 22.8518 16.9705C24.1572 15.665 24.8906 13.8945 24.8906 12.0483C24.8906 10.2022 24.1572 8.43164 22.8518 7.12621C21.5464 5.82078 19.7758 5.0874 17.9297 5.0874H10.3359C10.2054 5.08748 10.0803 5.13936 9.98799 5.23164C9.8957 5.32393 9.84382 5.44908 9.84375 5.57959V28.0301C9.84382 28.1606 9.8957 28.2858 9.98799 28.378C10.0803 28.4703 10.2054 28.5222 10.3359 28.5223ZM10.8281 6.07178H17.9297C19.5148 6.07178 21.0349 6.70145 22.1558 7.82227C23.2766 8.9431 23.9062 10.4633 23.9062 12.0483C23.9062 13.6334 23.2766 15.1536 22.1558 16.2744C21.0349 17.3952 19.5148 18.0249 17.9297 18.0249H13.7604C13.6299 18.025 13.5048 18.0769 13.4125 18.1691C13.3202 18.2614 13.2683 18.3866 13.2682 18.5171V27.5379H10.8281V6.07178Z" fill="#C39B54"/>
<path d="M13.7402 15.4033H18.1097C19.9713 15.4033 21.4847 13.8078 21.4847 11.8469C21.4847 9.88606 19.9705 8.29053 18.1097 8.29053H13.7402C13.6097 8.2906 13.4846 8.34248 13.3923 8.43477C13.3 8.52705 13.2481 8.6522 13.248 8.78271V14.9112C13.2481 15.0417 13.3 15.1668 13.3923 15.2591C13.4846 15.3514 13.6097 15.4033 13.7402 15.4033ZM14.2324 9.2749H18.1097C19.4285 9.2749 20.5004 10.428 20.5004 11.8469C20.5004 13.2658 19.4277 14.419 18.1097 14.419H14.2324V9.2749Z" fill="#C39B54"/>
</svg>
