<svg viewBox="0 0 36 36" fill="none" xmlns="http://www.w3.org/2000/svg">
<g opacity="0.5">
<path d="M9.64203 28.0361H30.9514C31.3963 28.0356 31.823 27.8587 32.1376 27.5441C32.4523 27.2295 32.6293 26.8029 32.6298 26.3579V5.04856C32.6294 4.60355 32.4524 4.1769 32.1377 3.86223C31.823 3.54756 31.3964 3.37058 30.9514 3.37012H9.64203C9.19707 3.37064 8.77048 3.54765 8.45587 3.86232C8.14126 4.17698 7.96432 4.60359 7.96387 5.04856V26.3579C7.96438 26.8028 8.14135 27.2294 8.45595 27.544C8.77056 27.8586 9.19711 28.0356 9.64203 28.0361ZM9.08887 5.04856C9.08898 4.90186 9.14729 4.76119 9.25099 4.65744C9.3547 4.55368 9.49533 4.4953 9.64203 4.49512H30.9514C31.0981 4.49529 31.2388 4.55365 31.3425 4.65741C31.4463 4.76116 31.5047 4.90183 31.5048 5.04856V26.3579C31.5046 26.5046 31.4463 26.6452 31.3425 26.749C31.2387 26.8527 31.0981 26.911 30.9514 26.9111H9.64203C9.49536 26.911 9.35473 26.8526 9.25102 26.7489C9.14731 26.6452 9.08899 26.5046 9.08887 26.3579V5.04856Z" fill="#C39B54"/>
<path d="M12.9574 22.7948C13.1062 22.7952 13.2492 22.7367 13.3549 22.6319C13.4607 22.5271 13.5206 22.3847 13.5215 22.2359L13.5608 15.9355C13.6457 13.2213 17.151 13.2336 17.2168 15.9498V22.2323C17.2168 22.3815 17.276 22.5246 17.3815 22.6301C17.487 22.7355 17.6301 22.7948 17.7793 22.7948C17.9284 22.7948 18.0715 22.7355 18.177 22.6301C18.2825 22.5246 18.3418 22.3815 18.3418 22.2323V15.9498C18.3971 13.2457 21.9733 13.2026 22.037 15.9498V22.2323C22.0392 22.38 22.0994 22.521 22.2047 22.6247C22.3099 22.7284 22.4518 22.7865 22.5995 22.7865C22.7473 22.7865 22.8891 22.7284 22.9943 22.6247C23.0996 22.521 23.1598 22.38 23.162 22.2323V15.9498C23.1757 15.5437 23.109 15.1389 22.9659 14.7585C22.8228 14.3782 22.6061 14.0299 22.3281 13.7335C22.0502 13.4371 21.7164 13.1985 21.3461 13.0313C20.9757 12.8642 20.576 12.7717 20.1699 12.7593C19.6935 12.7652 19.226 12.8886 18.8089 13.1188C18.3919 13.349 18.0381 13.6786 17.7792 14.0785C17.5586 13.7351 17.2664 13.4433 16.9226 13.2232C16.5788 13.0031 16.1915 12.8598 15.7872 12.8032C15.3829 12.7466 14.9712 12.778 14.5801 12.8952C14.1891 13.0124 13.828 13.2127 13.5215 13.4823V12.5918C13.5193 12.4441 13.4591 12.3031 13.3538 12.1994C13.2486 12.0957 13.1067 12.0376 12.959 12.0376C12.8112 12.0376 12.6694 12.0957 12.5641 12.1994C12.4589 12.3031 12.3987 12.4441 12.3965 12.5918V22.2323C12.3965 22.3812 12.4555 22.524 12.5607 22.6295C12.6658 22.7349 12.8085 22.7944 12.9574 22.7948Z" fill="#C39B54"/>
<path d="M25.2454 10.6065L25.8175 9.96433C25.8824 9.88872 25.9638 9.82899 26.0554 9.78971C26.147 9.75044 26.2464 9.73266 26.3459 9.73775C26.8468 9.75057 27.054 10.1947 27.0716 10.6468C27.0765 10.9156 26.9764 11.1756 26.7925 11.3717L24.4296 13.7101C24.3522 13.7893 24.2996 13.8894 24.2785 13.9981C24.2573 14.1067 24.2685 14.2192 24.3106 14.3217C24.3528 14.4241 24.424 14.5119 24.5155 14.5742C24.607 14.6366 24.7147 14.6708 24.8254 14.6725H27.6341C27.7814 14.6696 27.9216 14.6091 28.0248 14.5039C28.1279 14.3987 28.1857 14.2573 28.1857 14.11C28.1857 13.9627 28.1279 13.8212 28.0248 13.7161C27.9216 13.6109 27.7813 13.5504 27.634 13.5475H26.1935L27.5838 12.1715C28.8503 11.0146 28.0084 8.3881 26.1684 8.62153C25.4239 8.61246 24.8533 9.33729 24.4055 9.85835C24.3097 9.97022 24.2616 10.1152 24.2715 10.2621C24.2814 10.4091 24.3486 10.5463 24.4586 10.6443C24.5686 10.7422 24.7126 10.7931 24.8597 10.7861C25.0068 10.779 25.1453 10.7145 25.2454 10.6065Z" fill="#C39B54"/>
<path d="M34.2692 32.0626C34.3113 31.9598 34.3222 31.8468 34.3006 31.7379C34.279 31.6289 34.2258 31.5287 34.1477 31.4497L32.2453 29.5474C32.1398 29.4419 31.9968 29.3826 31.8476 29.3826C31.6984 29.3826 31.5554 29.4419 31.4499 29.5474C31.3444 29.6528 31.2852 29.7959 31.2852 29.9451C31.2852 30.0942 31.3444 30.2373 31.4499 30.3428L32.3923 31.2851H5.81028C5.51996 31.2848 5.24164 31.1693 5.03636 30.964C4.83107 30.7587 4.71558 30.4804 4.71521 30.1901V3.60808L5.65757 4.55044C5.76373 4.65261 5.90573 4.70906 6.05306 4.70764C6.20039 4.70623 6.34128 4.64708 6.44546 4.54289C6.54964 4.4387 6.60878 4.2978 6.61018 4.15048C6.61158 4.00315 6.55512 3.86115 6.45295 3.755L4.55057 1.85263C4.47157 1.77454 4.37137 1.7214 4.26242 1.69979C4.15346 1.67818 4.04056 1.68907 3.93774 1.7311C3.86893 1.75963 1.85247 3.75502 1.85247 3.75502C1.75012 3.86114 1.69351 4.00321 1.69485 4.15064C1.69618 4.29807 1.75534 4.43908 1.8596 4.54333C1.96386 4.64758 2.10488 4.70673 2.25231 4.70806C2.39974 4.70938 2.5418 4.65276 2.64791 4.5504L3.59021 3.60808V30.1901C3.59088 30.7787 3.82499 31.3429 4.24119 31.7591C4.65739 32.1753 5.22168 32.4095 5.81028 32.4101H32.3922L31.4499 33.3525C31.3972 33.4046 31.3553 33.4666 31.3266 33.535C31.298 33.6034 31.2831 33.6767 31.2829 33.7509C31.2827 33.825 31.2971 33.8984 31.3254 33.9669C31.3537 34.0355 31.3952 34.0977 31.4476 34.1502C31.5001 34.2026 31.5623 34.2441 31.6308 34.2724C31.6994 34.3006 31.7728 34.3151 31.8469 34.3149C31.9211 34.3147 31.9944 34.2998 32.0628 34.2711C32.1312 34.2425 32.1932 34.2006 32.2453 34.1479C32.2453 34.1479 34.2407 32.1314 34.2692 32.0626Z" fill="#C39B54"/>
</g>
</svg>
