<svg width="152" height="110" viewBox="0 0 152 110" fill="none" xmlns="http://www.w3.org/2000/svg">
<path d="M42.9019 48.5766C42.9088 49.0978 42.9226 49.4782 42.9364 49.2457L42.9502 48.9922C42.9433 48.8583 42.9295 48.7175 42.9226 48.5837H42.9019V48.5766ZM111.242 44.3789H111.276V39.4557L111.29 39.1317L111.276 38.7937V20.6576C111.276 18.277 109.386 16.3471 107.055 16.3471H47.137C44.785 16.3471 42.8744 18.2911 42.8744 20.6998V48.5766H42.8951C42.8882 48.0413 42.8813 47.3582 42.8744 47.0271C42.8744 47.5483 42.8882 48.0625 42.9157 48.5766H42.964L42.9433 48.9851C44.0055 67.2762 58.9109 81.8274 77.0787 81.8274C95.2466 81.8274 111.283 66.1564 111.283 46.9004C111.283 46.2806 111.262 45.6608 111.228 45.041V44.3719L111.242 44.3789ZM85.0866 18.5587L83.1691 19.7349C81.0447 21.0379 79.1824 22.6578 77.6236 24.5454L77.1477 25.1229L76.6718 24.5454C75.113 22.6578 73.2437 21.0379 71.1262 19.7349L69.2087 18.5587H85.0866ZM45.0884 46.5905C45.0884 46.5271 45.0884 46.5482 45.0884 46.6186V46.5905ZM57.5797 72.5163L56.5589 71.643C49.7856 65.8535 45.7023 57.5567 45.1574 48.633L45.1988 47.6681L46.2334 49.0203C48.8751 52.4645 52.8067 54.6971 57.021 55.1338L57.5797 55.1902V72.5163ZM64.7461 75.7632C64.7461 76.221 64.2771 76.5309 63.8701 76.3408C62.532 75.721 61.2353 75.0096 59.9938 74.1996C59.8144 74.0869 59.711 73.8827 59.711 73.6714V55.7607C59.711 55.4367 59.9524 55.162 60.2697 55.1268C61.5319 54.993 62.7665 54.6971 63.9667 54.2605C64.353 54.1196 64.753 54.4084 64.753 54.8239V75.7562L64.7461 75.7632ZM72.2643 78.8833L71.5332 78.7566C70.0916 78.503 68.6708 78.1438 67.2982 77.693L66.8705 77.5522V39.2797C66.8084 35.2862 64.146 31.6731 60.3111 30.8913C54.6207 29.7432 49.6614 34.6382 50.5029 40.4136C51.0271 44.0267 53.9654 46.8088 57.49 47.4286C57.6004 47.4497 57.7107 47.4638 57.8211 47.4779C57.8418 47.4779 57.8556 47.4709 57.8694 47.4709C57.8901 47.4709 57.9039 47.4779 57.9177 47.4779C58.5039 47.4779 58.9799 46.9919 58.9799 46.3933C58.9799 45.7946 58.5039 45.3086 57.9177 45.3086C57.9108 45.3086 57.9039 45.3086 57.8901 45.3086C54.4138 44.8719 51.8341 41.4419 52.7032 37.6316C53.2136 35.4059 55.607 33.2226 57.828 32.9408C61.325 32.4971 64.2978 34.9763 64.6978 38.35H64.7461V51.5136L64.3875 51.6827C62.5596 52.5631 60.6283 53.0068 58.6419 53.0068C51.5444 53.0068 45.5851 47.3441 45.0884 40.0615V38.1246C45.5919 30.8913 51.5444 25.2215 58.6419 25.2215C65.7393 25.2215 72.0229 31.2293 72.2436 38.6951V47.5413L72.2574 47.5201V78.8692L72.2643 78.8833ZM73.2299 32.8704L72.5678 31.6026C69.8226 26.3132 64.484 23.0311 58.635 23.0311C53.7447 23.0311 49.2062 25.306 46.192 29.2784L45.0815 30.7434V21.6577C45.0815 19.9462 46.4403 18.5657 48.1164 18.5657H59.7386C66.0014 18.5728 71.8022 21.4957 75.6509 26.5879L75.9131 26.933L75.6854 27.3063C74.8784 28.6445 74.2163 30.0602 73.699 31.5392L73.2299 32.8845V32.8704ZM79.7894 38.357C79.7756 38.6106 79.7549 38.8712 79.7549 39.1317L79.7687 39.5473V79.1369L79.1893 79.1721C78.4858 79.2214 77.7822 79.2496 77.0649 79.2496C76.3476 79.2496 75.6578 79.2144 74.9612 79.1721L74.3818 79.1369V39.4135L74.4232 38.9698C74.4508 35.8074 75.175 32.7577 76.5821 29.8982L77.1408 28.7713L77.6926 29.8982C78.941 32.4337 79.6515 35.1665 79.8032 38.1035L79.7825 38.357H79.7894ZM94.4534 73.6221C94.4534 73.8616 94.3361 74.0799 94.1361 74.2067C92.9014 75.0026 91.6185 75.7139 90.2873 76.3267C89.8735 76.5168 89.4113 76.214 89.4113 75.7491V54.8239C89.4113 54.4084 89.8183 54.1125 90.1976 54.2605C91.3909 54.6971 92.6324 54.993 93.8878 55.1268C94.205 55.162 94.4464 55.4367 94.4464 55.7607V73.6221H94.4534ZM97.5986 71.6289L96.5778 72.5022V55.1972L97.1364 55.1409C101.344 54.7042 105.275 52.4785 107.91 49.0485L108.945 47.6962C108.945 47.6962 109.041 47.3018 109.035 47.661C108.738 56.9439 104.606 65.6281 97.5917 71.6289M109.048 40.4629C108.379 47.6188 102.558 53.0138 95.5087 53.0138C93.5153 53.0138 91.584 52.5701 89.7562 51.6827L89.4044 51.5136V38.357H89.4527C89.8252 35.2439 92.3772 32.8915 95.5087 32.8915C98.9643 32.8915 101.758 35.8356 101.606 39.3924C101.544 40.8644 100.882 42.2519 99.8954 43.3224C98.7987 44.5057 97.5227 45.1537 96.2053 45.3157C96.157 45.3157 96.1156 45.3227 96.0673 45.3297C96.0329 45.3297 96.0122 45.3086 95.9777 45.3086C95.3914 45.3086 94.9155 45.7946 94.9155 46.3933C94.9155 46.9919 95.3914 47.4779 95.9777 47.4779C96.026 47.4779 96.0742 47.4568 96.1225 47.4497C96.1639 47.4638 96.2053 47.492 96.2467 47.492C96.3846 47.4779 96.5157 47.4568 96.6605 47.4286C100.178 46.8088 103.117 44.0268 103.648 40.4207C104.496 34.6523 99.5574 29.7573 93.8809 30.8842C90.0597 31.6378 87.3904 35.2087 87.2869 39.1811V77.5451L86.8524 77.686C85.4936 78.1297 84.0658 78.4889 82.6174 78.7495L81.8931 78.8763V49.2809L81.9138 48.7738V39.5473C81.9138 32.3492 87.1007 26.0104 94.1154 25.306C101.778 24.5313 108.338 30.1588 109.055 37.8429V40.4629H109.048ZM109.048 30.7011L107.938 29.2432C104.296 24.475 98.4607 22.1577 92.46 23.3128C87.7352 24.2214 83.7623 27.4683 81.4655 31.7787C81.2792 32.1309 80.7826 32.0886 80.6447 31.7153L80.5136 31.3491C80.0032 29.9263 79.3549 28.5529 78.5755 27.264L78.3548 26.9048L78.6168 26.5597C82.4656 21.4746 88.2663 18.5516 94.5292 18.5376H106.131C107.738 18.5376 109.035 19.8617 109.035 21.5027V30.687L109.048 30.7011Z" fill="white"/>
<path d="M45.7369 4.81057L43.4262 1.51437H45.0954L47.0267 4.38094V5.26134L44.5712 8.61388H42.8468L45.7369 4.81761V4.81057ZM48.7579 8.60684H47.3922V1.51437H48.7579V8.60684ZM52.7308 1.51437L50.4202 4.81057L53.2964 8.60684H51.579L49.1235 5.25429V4.37389L51.0548 1.50733H52.724L52.7308 1.51437Z" fill="white"/>
<path d="M53.9655 8.60684V1.51437H55.3381V6.09947L59.111 1.50028H59.9663V8.60684H58.6006V4.01469L54.8415 8.60684H53.9655Z" fill="white"/>
<path d="M64.2219 3.6555L62.2424 8.60684H60.7249L63.7874 1.50028H64.6634L67.7327 8.60684H66.2084L64.2219 3.6555Z" fill="white"/>
<path d="M70.0227 1.67624C70.471 1.47903 70.9331 1.38748 71.4229 1.38748C71.9126 1.38748 72.3747 1.48608 72.823 1.67624C73.2714 1.86641 73.6507 2.13405 73.9749 2.45803C74.2922 2.78202 74.5474 3.17644 74.7405 3.6272C74.9268 4.07796 75.0233 4.5569 75.0233 5.04992C75.0233 5.45138 74.9612 5.83875 74.844 6.21204C74.7267 6.58532 74.5543 6.9234 74.3336 7.22625C74.1129 7.52911 73.8508 7.7897 73.5542 8.01508C73.2576 8.24047 72.9265 8.41654 72.5609 8.54332C72.1954 8.6701 71.816 8.72645 71.4229 8.72645C71.0297 8.72645 70.6504 8.66305 70.2848 8.54332C69.9192 8.41654 69.5882 8.24047 69.2916 8.01508C68.995 7.7897 68.7329 7.52207 68.5121 7.22625C68.2914 6.9234 68.119 6.58532 68.0017 6.21204C67.8776 5.83875 67.8224 5.45138 67.8224 5.04992C67.8224 4.54986 67.919 4.07796 68.1052 3.6272C68.2914 3.17644 68.5466 2.78202 68.8708 2.45803C69.195 2.13405 69.5743 1.86641 70.0227 1.67624ZM69.8503 6.78958C70.2848 7.27556 70.809 7.51503 71.4229 7.51503C72.0367 7.51503 72.5609 7.27556 72.9955 6.78958C73.43 6.31065 73.6507 5.72606 73.6507 5.04992C73.6507 4.6062 73.5542 4.1977 73.3542 3.81737C73.1541 3.44408 72.8851 3.14123 72.5471 2.92993C72.2092 2.7116 71.8367 2.60594 71.4298 2.60594C71.0228 2.60594 70.6504 2.7116 70.3124 2.92993C69.9744 3.14827 69.6985 3.44408 69.5054 3.81737C69.3054 4.1977 69.2088 4.6062 69.2088 5.04992C69.2088 5.72606 69.4295 6.31065 69.864 6.78958" fill="white"/>
<path d="M76.3063 1.51427H77.6789V6.09938L81.4518 1.50019H82.3139V8.59969H80.9482V4.0146L77.1891 8.59969H76.3132V1.50724L76.3063 1.51427ZM80.3482 0.1479L80.6792 0.0140893V1.19733L80.5344 1.26777C80.1826 1.42272 79.7964 1.50019 79.3687 1.50019C78.9411 1.50019 78.5341 1.42272 78.1962 1.26777L78.0582 1.19733V0L78.3893 0.1479C78.7066 0.274677 79.0376 0.345108 79.3756 0.345108C79.7136 0.345108 80.0516 0.281723 80.3551 0.16199" fill="white"/>
<path d="M92.4048 1.51438L94.9431 7.38837H95.7777V9.52246H94.412V8.5998H89.5286V9.5295H88.156V7.38837H88.9906L91.5288 1.51438H92.4048ZM91.9703 3.66255L90.4804 7.38837H93.467L91.9703 3.66255Z" fill="white"/>
<path d="M97.8331 1.67624C98.2814 1.47903 98.7435 1.38748 99.2333 1.38748C99.723 1.38748 100.185 1.48608 100.633 1.67624C101.082 1.86641 101.461 2.13405 101.785 2.45803C102.103 2.78202 102.358 3.17644 102.551 3.6272C102.737 4.07796 102.834 4.5569 102.834 5.04992C102.834 5.45138 102.772 5.83875 102.654 6.21204C102.537 6.58532 102.365 6.9234 102.144 7.22625C101.923 7.52911 101.661 7.7897 101.365 8.01508C101.068 8.24047 100.737 8.41654 100.371 8.54332C100.006 8.6701 99.6264 8.72645 99.2333 8.72645C98.8401 8.72645 98.4608 8.66305 98.0952 8.54332C97.7296 8.41654 97.3986 8.24047 97.102 8.01508C96.8054 7.7897 96.5502 7.52207 96.3225 7.22625C96.1018 6.9234 95.9294 6.58532 95.8121 6.21204C95.688 5.83875 95.6328 5.45138 95.6328 5.04992C95.6328 4.54986 95.7294 4.07796 95.9156 3.6272C96.1018 3.17644 96.357 2.78202 96.6812 2.45803C97.0054 2.13405 97.3848 1.86641 97.8331 1.67624ZM97.6607 6.78958C98.0952 7.27556 98.6194 7.51503 99.2333 7.51503C99.8471 7.51503 100.371 7.27556 100.806 6.78958C101.24 6.31065 101.461 5.72606 101.461 5.04992C101.461 4.6062 101.365 4.1977 101.165 3.81737C100.965 3.44408 100.696 3.14123 100.358 2.92993C100.02 2.7116 99.6471 2.60594 99.2402 2.60594C98.8332 2.60594 98.4607 2.7116 98.1228 2.92993C97.7848 3.14827 97.5089 3.44408 97.3158 3.81737C97.1158 4.1977 97.0192 4.6062 97.0192 5.04992C97.0192 5.72606 97.2399 6.31065 97.6744 6.78958" fill="white"/>
<path d="M110.331 1.51438H111.221V8.60685H109.848V5.05709L108.165 8.60685H107.165L105.489 5.05709V8.60685H104.117V1.51438H105L107.669 6.88128L110.331 1.51438Z" fill="white"/>
<path d="M7.33885 99.0479V95.3995H9.87022V105.739H7.33885V101.316H2.51756V105.739H0V95.3995H2.51756V99.0479H7.33885Z" fill="white"/>
<path d="M20.713 96.8223V95.3925H23.2375V105.732H20.713V104.281C20.3405 104.795 19.8784 105.211 19.3197 105.528C18.761 105.845 18.1334 105.999 17.4298 105.999C16.4642 105.999 15.5675 105.753 14.7467 105.267C13.9259 104.781 13.2776 104.112 12.7947 103.274C12.3188 102.436 12.0774 101.52 12.0774 100.534C12.0774 99.548 12.3188 98.6324 12.7947 97.7942C13.2707 96.9561 13.919 96.287 14.7467 95.801C15.5675 95.315 16.4642 95.0685 17.4298 95.0685C18.1334 95.0685 18.7748 95.2376 19.3473 95.5756C19.9267 95.9137 20.3819 96.3293 20.7199 96.8152M17.4298 103.732C18.2023 103.732 18.8714 103.422 19.4232 102.795C19.9819 102.168 20.2578 101.414 20.2578 100.534C20.2578 99.6536 19.9819 98.9 19.4232 98.2731C18.8714 97.6463 18.2023 97.3364 17.4298 97.3364C16.6573 97.3364 15.9745 97.6463 15.4227 98.2661C14.8709 98.8859 14.595 99.6466 14.595 100.534C14.595 101.421 14.8709 102.182 15.4227 102.802C15.9745 103.422 16.6435 103.739 17.4298 103.739" fill="white"/>
<path d="M42.4813 96.449C42.4813 97.1533 42.364 97.7802 42.1226 98.3366C41.8812 98.893 41.5501 99.3367 41.1294 99.6889C40.7087 100.041 40.2189 100.309 39.674 100.506C39.1291 100.696 38.5291 100.816 37.8738 100.851H35.4597V105.746H32.7835V91.9202H37.729C38.6325 91.9202 39.4395 92.0963 40.15 92.4555C40.8673 92.8147 41.4329 93.3359 41.8536 94.0261C42.2744 94.7164 42.4882 95.5264 42.4882 96.456M35.4597 98.4704H37.2599C37.7152 98.4704 38.1152 98.414 38.4463 98.2943C38.7843 98.1746 39.0326 98.0408 39.205 97.8858C39.3706 97.7309 39.5016 97.5407 39.5982 97.3294C39.6947 97.1111 39.7499 96.942 39.7706 96.8082C39.7913 96.6744 39.8051 96.5406 39.8051 96.3997C39.8051 96.2589 39.7913 96.118 39.7706 95.9841C39.7499 95.8433 39.6878 95.6672 39.5982 95.4489C39.5016 95.2305 39.3706 95.0404 39.205 94.8854C39.0395 94.7305 38.7843 94.5896 38.4463 94.4699C38.1083 94.3501 37.7152 94.2938 37.2599 94.2938H35.4597V98.4704Z" fill="white"/>
<path d="M46.061 95.8363C46.8818 95.3503 47.7784 95.1108 48.7441 95.1108C49.7097 95.1108 50.6064 95.3503 51.4272 95.8363C52.248 96.3222 52.9032 96.9843 53.3791 97.8154C53.8551 98.6535 54.0965 99.5621 54.0965 100.555C54.0965 101.548 53.8551 102.457 53.3791 103.295C52.9032 104.133 52.2549 104.795 51.4272 105.288C50.6064 105.774 49.7097 106.021 48.7441 106.021C47.7784 106.021 46.8818 105.774 46.061 105.288C45.2402 104.802 44.5918 104.14 44.109 103.295C43.6331 102.457 43.3917 101.541 43.3917 100.555C43.3917 99.5691 43.6331 98.6535 44.109 97.8154C44.5849 96.9773 45.2333 96.3152 46.061 95.8363ZM48.7441 103.753C49.5166 103.753 50.1856 103.443 50.7374 102.816C51.2892 102.189 51.572 101.436 51.572 100.555C51.572 99.6748 51.2961 98.9212 50.7374 98.2943C50.1787 97.6675 49.5166 97.3576 48.7441 97.3576C47.9716 97.3576 47.2956 97.6675 46.7507 98.2873C46.1989 98.9071 45.923 99.6678 45.923 100.555C45.923 101.443 46.1989 102.203 46.7507 102.823C47.3025 103.443 47.9647 103.753 48.7441 103.753Z" fill="white"/>
<path d="M64.0358 96.7518V95.3432H66.5395V104.443H66.5188C66.4637 105.619 66.1671 106.633 65.6291 107.479C65.0911 108.324 64.3737 108.958 63.484 109.373C62.5942 109.789 61.5665 110 60.4146 110C59.6628 110 58.9041 109.873 58.1384 109.613C57.3728 109.352 56.7107 108.986 56.1451 108.514V105.513C56.3382 105.767 56.552 105.999 56.7866 106.225C57.028 106.45 57.3177 106.683 57.6763 106.922C58.0281 107.162 58.4419 107.359 58.9179 107.5C59.3938 107.641 59.8904 107.718 60.4146 107.718C61.5182 107.718 62.3804 107.408 63.0081 106.788C63.6288 106.169 63.9668 105.309 64.0151 104.211C63.684 104.704 63.2288 105.119 62.6563 105.457C62.0769 105.795 61.4354 105.971 60.725 105.971C59.7593 105.971 58.8627 105.725 58.0419 105.239C57.2211 104.753 56.5659 104.091 56.0899 103.246C55.614 102.407 55.3726 101.492 55.3726 100.506C55.3726 99.5198 55.614 98.6042 56.0899 97.766C56.5659 96.9279 57.2211 96.2588 58.0419 95.7728C58.8627 95.2868 59.7593 95.0403 60.725 95.0403C61.4285 95.0403 62.0562 95.1953 62.6149 95.5122C63.1736 95.8221 63.6426 96.2377 64.0289 96.7518M60.725 103.703C61.5113 103.703 62.1803 103.394 62.7321 102.767C63.2839 102.147 63.5598 101.386 63.5598 100.499C63.5598 99.6113 63.2839 98.8507 62.7321 98.2238C62.1803 97.597 61.5113 97.2871 60.7319 97.2871C59.9525 97.2871 59.2834 97.597 58.7385 98.2238C58.1867 98.8507 57.9108 99.6043 57.9108 100.499C57.9108 101.393 58.1867 102.147 58.7385 102.767C59.2903 103.386 59.9525 103.703 60.7319 103.703" fill="white"/>
<path d="M76.8305 99.0479V95.3995H79.3618V105.739H76.8305V101.316H72.0161V105.739H69.4916V95.3995H72.0161V99.0479H76.8305Z" fill="white"/>
<path d="M86.8662 106.007C86.2317 106.007 85.6523 105.915 85.135 105.725C84.6177 105.535 84.1831 105.288 83.8382 104.964C83.4934 104.647 83.2037 104.267 82.9692 103.837C82.7346 103.408 82.5691 102.95 82.4657 102.471C82.3622 101.992 82.3139 101.492 82.3139 100.971V95.3574H84.8453V100.914C84.8453 101.788 85.0591 102.478 85.4867 102.999C85.9144 103.52 86.5006 103.774 87.2456 103.774C87.9491 103.774 88.5285 103.513 88.9768 102.985C89.4321 102.457 89.6597 101.767 89.6597 100.914V95.3574H92.191V105.718H89.6597V104.697C89.501 104.859 89.3424 105.007 89.1907 105.126C89.0389 105.246 88.8458 105.387 88.6181 105.535C88.3836 105.683 88.1147 105.802 87.8181 105.88C87.5215 105.957 87.2042 106 86.88 106" fill="white"/>
<path d="M97.8124 105.739H95.3086V91.1948H97.8124V105.739ZM104.924 95.3996L100.84 99.8438L105.841 105.739H102.523L98.3504 100.668V98.9352L101.503 95.3925H104.917L104.924 95.3996Z" fill="white"/>
<path d="M108.414 95.8363C109.235 95.3503 110.131 95.1108 111.097 95.1108C112.063 95.1108 112.959 95.3503 113.78 95.8363C114.601 96.3222 115.256 96.9843 115.732 97.8154C116.208 98.6535 116.449 99.5621 116.449 100.555C116.449 101.548 116.208 102.457 115.732 103.295C115.256 104.133 114.608 104.795 113.78 105.288C112.959 105.774 112.063 106.021 111.097 106.021C110.131 106.021 109.235 105.774 108.414 105.288C107.593 104.802 106.945 104.14 106.462 103.295C105.986 102.457 105.744 101.541 105.744 100.555C105.744 99.5691 105.986 98.6535 106.462 97.8154C106.938 96.9773 107.593 96.3152 108.414 95.8363ZM111.097 103.753C111.869 103.753 112.538 103.443 113.09 102.816C113.642 102.189 113.925 101.436 113.925 100.555C113.925 99.6748 113.649 98.9212 113.09 98.2943C112.532 97.6675 111.869 97.3576 111.097 97.3576C110.324 97.3576 109.648 97.6675 109.104 98.2873C108.552 98.9071 108.276 99.6678 108.276 100.555C108.276 101.443 108.552 102.203 109.104 102.823C109.655 103.443 110.317 103.753 111.097 103.753Z" fill="white"/>
<path d="M125.119 97.5056C125.34 97.5689 125.547 97.6394 125.74 97.7169C125.933 97.7943 126.175 97.9352 126.464 98.1324C126.754 98.3296 127.002 98.555 127.202 98.8156C127.402 99.0691 127.582 99.4213 127.727 99.8509C127.878 100.288 127.954 100.774 127.954 101.316C127.954 102.196 127.74 102.999 127.32 103.718C126.899 104.436 126.32 104.992 125.602 105.394C124.878 105.795 124.085 105.993 123.223 105.993C122.719 105.993 122.236 105.929 121.774 105.809C121.312 105.69 120.877 105.507 120.477 105.253C120.077 104.999 119.726 104.697 119.429 104.33C119.132 103.971 118.905 103.527 118.732 103.006C118.56 102.485 118.477 101.922 118.477 101.309V95.0193C118.477 94.4347 118.56 93.9136 118.719 93.4417C118.877 92.9698 119.098 92.5824 119.367 92.2795C119.636 91.9767 119.953 91.7231 120.319 91.5189C120.684 91.3146 121.057 91.1738 121.436 91.0892C121.816 91.0047 122.216 90.9625 122.629 90.9625C123.354 90.9625 124.023 91.1245 124.657 91.4485C125.292 91.7724 125.802 92.2373 126.195 92.8359C126.589 93.4417 126.789 94.1178 126.789 94.8644C126.789 95.9279 126.237 96.8083 125.133 97.5056M123.236 103.76C123.823 103.76 124.34 103.542 124.781 103.112C125.223 102.682 125.444 102.098 125.444 101.365C125.444 100.879 125.306 100.457 125.023 100.083C124.747 99.7101 124.395 99.4354 123.981 99.2593C123.561 99.0832 123.126 98.9917 122.664 98.9917H121.712V96.7308H122.354C122.85 96.7308 123.298 96.5688 123.685 96.2519C124.078 95.9349 124.271 95.5124 124.271 94.9841C124.271 94.5122 124.112 94.0967 123.802 93.7445C123.492 93.3924 123.105 93.2092 122.65 93.2092C122.229 93.2092 121.857 93.3571 121.526 93.6529C121.195 93.9488 121.029 94.3573 121.029 94.8785V101.457C121.029 102.239 121.25 102.816 121.684 103.189C122.126 103.57 122.643 103.753 123.243 103.753" fill="white"/>
<path d="M131.906 95.8363C132.727 95.3503 133.624 95.1108 134.59 95.1108C135.555 95.1108 136.452 95.3503 137.273 95.8363C138.093 96.3222 138.749 96.9843 139.225 97.8154C139.701 98.6535 139.942 99.5621 139.942 100.555C139.942 101.548 139.701 102.457 139.225 103.295C138.749 104.133 138.1 104.795 137.273 105.288C136.452 105.774 135.555 106.021 134.59 106.021C133.624 106.021 132.727 105.774 131.906 105.288C131.086 104.802 130.437 104.14 129.954 103.295C129.479 102.457 129.237 101.541 129.237 100.555C129.237 99.5691 129.479 98.6535 129.954 97.8154C130.43 96.9773 131.086 96.3152 131.906 95.8363ZM134.59 103.753C135.362 103.753 136.031 103.443 136.583 102.816C137.135 102.189 137.417 101.436 137.417 100.555C137.417 99.6748 137.142 98.9212 136.583 98.2943C136.024 97.6675 135.362 97.3576 134.59 97.3576C133.817 97.3576 133.141 97.6675 132.596 98.2873C132.044 98.9071 131.768 99.6678 131.768 100.555C131.768 101.443 132.044 102.203 132.596 102.823C133.148 103.443 133.81 103.753 134.59 103.753Z" fill="white"/>
<path d="M146.522 106.042C145.887 106.042 145.308 105.95 144.791 105.76C144.273 105.57 143.839 105.323 143.494 105.007C143.149 104.69 142.86 104.316 142.625 103.88C142.39 103.443 142.225 102.985 142.122 102.506C142.018 102.027 141.97 101.52 141.97 100.992V95.3785H144.501V100.95C144.501 101.816 144.715 102.506 145.143 103.02C145.57 103.535 146.156 103.795 146.895 103.795C147.633 103.795 148.177 103.535 148.626 103.006C149.081 102.485 149.309 101.795 149.309 100.95V95.3785H151.84V105.739H149.309V104.739C149.136 104.908 148.978 105.056 148.833 105.169C148.688 105.288 148.502 105.422 148.267 105.57C148.033 105.718 147.764 105.838 147.467 105.922C147.17 106.007 146.853 106.049 146.529 106.049M148.819 92.1246L149.467 91.8851V93.9347L149.191 94.0615C148.557 94.3502 147.798 94.4911 146.922 94.4911C146.046 94.4911 145.274 94.3432 144.632 94.0615L144.363 93.9347V91.8429L145.018 92.1175C145.619 92.3711 146.253 92.4979 146.922 92.4979C147.591 92.4979 148.205 92.3711 148.826 92.1175" fill="white"/>
</svg>
