<svg width="64" height="47" viewBox="0 0 64 47" fill="none" xmlns="http://www.w3.org/2000/svg">
<path d="M18.083 20.7555C18.0859 20.9782 18.0917 21.1407 18.0976 21.0414L18.1034 20.933C18.1005 20.8758 18.0946 20.8157 18.0917 20.7585H18.083V20.7555ZM46.888 18.9619H46.9025V16.8584L46.9083 16.7199L46.9025 16.5755V8.82641C46.9025 7.80925 46.1059 6.98469 45.1233 6.98469H19.8681C18.8767 6.98469 18.0714 7.81527 18.0714 8.84447V20.7555H18.0801C18.0772 20.5268 18.0743 20.2349 18.0714 20.0934C18.0714 20.3161 18.0772 20.5358 18.0888 20.7555H18.1092L18.1005 20.93C18.5482 28.7453 24.8307 34.9626 32.4884 34.9626C40.1461 34.9626 46.9054 28.2668 46.9054 20.0392C46.9054 19.7744 46.8967 19.5096 46.8821 19.2448V18.9589L46.888 18.9619ZM35.8637 7.92962L35.0555 8.43219C34.1601 8.98892 33.3751 9.68106 32.7181 10.4876L32.5175 10.7343L32.3169 10.4876C31.6598 9.68106 30.872 8.98892 29.9794 8.43219L29.1712 7.92962H35.8637ZM19.0046 19.9068C19.0046 19.8798 19.0046 19.8888 19.0046 19.9189V19.9068ZM24.2696 30.9842L23.8394 30.6111C20.9844 28.1374 19.2634 24.5924 19.0337 20.7795L19.0511 20.3673L19.4872 20.9451C20.6007 22.4166 22.2578 23.3706 24.0341 23.5572L24.2696 23.5812V30.9842ZM27.2902 32.3716C27.2902 32.5672 27.0926 32.6996 26.921 32.6183C26.357 32.3535 25.8105 32.0496 25.2872 31.7035C25.2116 31.6553 25.168 31.5681 25.168 31.4778V23.825C25.168 23.6866 25.2697 23.5692 25.4035 23.5542C25.9355 23.497 26.4559 23.3706 26.9617 23.184C27.1245 23.1238 27.2932 23.2472 27.2932 23.4248V32.3685L27.2902 32.3716ZM30.4591 33.7047L30.151 33.6505C29.5434 33.5422 28.9445 33.3887 28.3659 33.1961L28.1857 33.1359V16.7831C28.1595 15.0768 27.0373 13.533 25.4209 13.199C23.0224 12.7085 20.9321 14.8 21.2868 17.2676C21.5077 18.8114 22.7462 20.0001 24.2318 20.2649C24.2783 20.274 24.3249 20.28 24.3714 20.286C24.3801 20.286 24.3859 20.283 24.3917 20.283C24.4004 20.283 24.4063 20.286 24.4121 20.286C24.6592 20.286 24.8598 20.0784 24.8598 19.8226C24.8598 19.5668 24.6592 19.3591 24.4121 19.3591C24.4092 19.3591 24.4063 19.3591 24.4004 19.3591C22.9352 19.1726 21.8479 17.707 22.2142 16.0789C22.4293 15.128 23.4382 14.1951 24.3743 14.0747C25.8483 13.8851 27.1013 14.9444 27.2699 16.3859H27.2902V22.0104L27.1391 22.0826C26.3687 22.4588 25.5546 22.6483 24.7173 22.6483C21.7258 22.6483 19.2139 20.2288 19.0046 17.1172V16.2896C19.2168 13.199 21.7258 10.7765 24.7173 10.7765C27.7089 10.7765 30.3574 13.3434 30.4504 16.5333V20.3131L30.4562 20.3041V33.6987L30.4591 33.7047ZM30.8662 14.0446L30.5871 13.5029C29.43 11.2429 27.1798 9.84056 24.7144 9.84056C22.6532 9.84056 20.7402 10.8126 19.4698 12.5099L19.0017 13.1358V9.25374C19.0017 8.52247 19.5744 7.93263 20.2809 7.93263H25.1796C27.8194 7.93564 30.2644 9.18452 31.8866 11.3603L31.9971 11.5077L31.9011 11.6672C31.561 12.239 31.2819 12.8439 31.0639 13.4759L30.8662 14.0506V14.0446ZM33.6309 16.3889C33.6251 16.4972 33.6164 16.6086 33.6164 16.7199L33.6222 16.8975V33.813L33.378 33.8281C33.0815 33.8491 32.7849 33.8612 32.4826 33.8612C32.1802 33.8612 31.8895 33.8461 31.5959 33.8281L31.3517 33.813V16.8403L31.3691 16.6507C31.3807 15.2995 31.686 13.9965 32.2791 12.7747L32.5146 12.2932L32.7471 12.7747C33.2733 13.858 33.5728 15.0257 33.6368 16.2806L33.628 16.3889H33.6309ZM39.8117 31.4567C39.8117 31.559 39.7623 31.6523 39.678 31.7065C39.1576 32.0465 38.6169 32.3505 38.0558 32.6123C37.8813 32.6936 37.6865 32.5642 37.6865 32.3655V23.4248C37.6865 23.2472 37.8581 23.1208 38.018 23.184C38.5209 23.3706 39.0442 23.497 39.5733 23.5542C39.7071 23.5692 39.8088 23.6866 39.8088 23.825V31.4567H39.8117ZM41.1374 30.6051L40.7072 30.9782V23.5843L40.9427 23.5602C42.7161 23.3736 44.3732 22.4226 45.4838 20.9571L45.9198 20.3793C45.9198 20.3793 45.9606 20.2108 45.9576 20.3643C45.8326 24.3306 44.0912 28.0411 41.1345 30.6051M45.9635 17.2887C45.6815 20.3462 43.2277 22.6514 40.2565 22.6514C39.4164 22.6514 38.6023 22.4618 37.8319 22.0826L37.6836 22.0104V16.3889H37.704C37.861 15.0588 38.9367 14.0536 40.2565 14.0536C41.7131 14.0536 42.8905 15.3116 42.8265 16.8313C42.8004 17.4602 42.5213 18.0531 42.1055 18.5105C41.6433 19.0161 41.1055 19.2929 40.5502 19.3621C40.5298 19.3621 40.5124 19.3652 40.492 19.3682C40.4775 19.3682 40.4688 19.3591 40.4542 19.3591C40.2071 19.3591 40.0065 19.5668 40.0065 19.8226C40.0065 20.0784 40.2071 20.286 40.4542 20.286C40.4746 20.286 40.4949 20.277 40.5153 20.274C40.5327 20.28 40.5502 20.292 40.5676 20.292C40.6258 20.286 40.681 20.277 40.7421 20.2649C42.2247 20.0001 43.4632 18.8114 43.6871 17.2706C44.0447 14.806 41.9631 12.7145 39.5704 13.196C37.9598 13.518 36.8347 15.0437 36.7911 16.741V33.1329L36.608 33.1931C36.0352 33.3827 35.4334 33.5362 34.8229 33.6475L34.5176 33.7017V21.0564L34.5264 20.8397V16.8975C34.5264 13.8219 36.7126 11.1135 39.6693 10.8126C42.8992 10.4816 45.664 12.886 45.9664 16.1692V17.2887H45.9635ZM45.9635 13.1177L45.4954 12.4948C43.9604 10.4575 41.5008 9.4674 38.9715 9.96093C36.9801 10.3491 35.3055 11.7365 34.3374 13.5782C34.2589 13.7286 34.0496 13.7106 33.9914 13.5511L33.9362 13.3946C33.7211 12.7867 33.4478 12.1999 33.1193 11.6492L33.0262 11.4957L33.1367 11.3482C34.7589 9.17549 37.2039 7.92661 39.8437 7.92059H44.7337C45.4111 7.92059 45.9576 8.48635 45.9576 9.18753V13.1117L45.9635 13.1177Z" fill="#C39B54"/>
<path d="M19.2779 2.05543L18.304 0.647049H19.0075L19.8216 1.87186V2.24803L18.7866 3.68047H18.0598L19.2779 2.05843V2.05543ZM20.5513 3.67747H19.9757V0.647049H20.5513V3.67747ZM22.2259 0.647049L21.2519 2.05543L22.4643 3.67747H21.7404L20.7054 2.24501V1.86884L21.5194 0.644042H22.223L22.2259 0.647049Z" fill="#C39B54"/>
<path d="M22.7463 3.67747V0.647049H23.3248V2.60614L24.9151 0.641029H25.2756V3.67747H24.6999V1.71537L23.1155 3.67747H22.7463Z" fill="#C39B54"/>
<path d="M27.0693 1.56189L26.2349 3.67747H25.5953L26.8861 0.641029H27.2554L28.5491 3.67747H27.9066L27.0693 1.56189Z" fill="#C39B54"/>
<path d="M29.5143 0.716213C29.7033 0.631951 29.8981 0.592833 30.1045 0.592833C30.3109 0.592833 30.5057 0.63496 30.6946 0.716213C30.8836 0.797465 31.0435 0.911821 31.1802 1.05025C31.3139 1.18868 31.4215 1.35721 31.5029 1.5498C31.5814 1.7424 31.6221 1.94704 31.6221 2.15769C31.6221 2.32923 31.5959 2.49474 31.5465 2.65423C31.497 2.81373 31.4244 2.95818 31.3313 3.08758C31.2383 3.21698 31.1278 3.32833 31.0028 3.42463C30.8778 3.52093 30.7383 3.59616 30.5842 3.65033C30.4301 3.7045 30.2702 3.72857 30.1045 3.72857C29.9388 3.72857 29.7789 3.70149 29.6248 3.65033C29.4707 3.59616 29.3311 3.52093 29.2061 3.42463C29.0811 3.32833 28.9706 3.21397 28.8776 3.08758C28.7846 2.95818 28.7119 2.81373 28.6625 2.65423C28.6102 2.49474 28.5869 2.32923 28.5869 2.15769C28.5869 1.94403 28.6276 1.7424 28.7061 1.5498C28.7846 1.35721 28.8922 1.18868 29.0288 1.05025C29.1654 0.911821 29.3253 0.797465 29.5143 0.716213ZM29.4416 2.901C29.6248 3.10865 29.8457 3.21097 30.1045 3.21097C30.3632 3.21097 30.5842 3.10865 30.7673 2.901C30.9505 2.69637 31.0435 2.44659 31.0435 2.15769C31.0435 1.9681 31.0028 1.79356 30.9185 1.63106C30.8342 1.47156 30.7208 1.34216 30.5784 1.25188C30.4359 1.15859 30.2789 1.11345 30.1074 1.11345C29.9359 1.11345 29.7789 1.15859 29.6364 1.25188C29.494 1.34517 29.3777 1.47156 29.2963 1.63106C29.212 1.79356 29.1713 1.9681 29.1713 2.15769C29.1713 2.44659 29.2643 2.69637 29.4474 2.901" fill="#C39B54"/>
<path d="M32.1628 0.647008H32.7414V2.6061L34.3316 0.640988H34.695V3.67441H34.1194V1.71533L32.5349 3.67441H32.1657V0.644L32.1628 0.647008ZM33.8665 0.0631938L34.006 0.00601998V0.511588L33.9449 0.541684C33.7967 0.607889 33.6339 0.640988 33.4536 0.640988C33.2734 0.640988 33.1019 0.607889 32.9594 0.541684L32.9012 0.511588V0L33.0408 0.0631938C33.1745 0.117362 33.3141 0.147455 33.4565 0.147455C33.599 0.147455 33.7414 0.120373 33.8694 0.0692137" fill="#C39B54"/>
<path d="M38.9483 0.647054L40.0182 3.15685H40.3699V4.06869H39.7943V3.67446H37.736V4.07169H37.1574V3.15685H37.5092L38.5791 0.647054H38.9483ZM38.7651 1.56491L38.1372 3.15685H39.396L38.7651 1.56491Z" fill="#C39B54"/>
<path d="M41.2363 0.716213C41.4253 0.631951 41.62 0.592833 41.8265 0.592833C42.0329 0.592833 42.2277 0.63496 42.4166 0.716213C42.6056 0.797465 42.7655 0.911821 42.9021 1.05025C43.0359 1.18868 43.1434 1.35721 43.2248 1.5498C43.3033 1.7424 43.344 1.94704 43.344 2.15769C43.344 2.32923 43.3179 2.49474 43.2684 2.65423C43.219 2.81373 43.1463 2.95818 43.0533 3.08758C42.9603 3.21698 42.8498 3.32833 42.7248 3.42463C42.5998 3.52093 42.4602 3.59616 42.3061 3.65033C42.1521 3.7045 41.9922 3.72857 41.8265 3.72857C41.6607 3.72857 41.5008 3.70149 41.3468 3.65033C41.1927 3.59616 41.0531 3.52093 40.9281 3.42463C40.8031 3.32833 40.6955 3.21397 40.5996 3.08758C40.5066 2.95818 40.4339 2.81373 40.3845 2.65423C40.3321 2.49474 40.3089 2.32923 40.3089 2.15769C40.3089 1.94403 40.3496 1.7424 40.4281 1.5498C40.5066 1.35721 40.6141 1.18868 40.7508 1.05025C40.8874 0.911821 41.0473 0.797465 41.2363 0.716213ZM41.1636 2.901C41.3468 3.10865 41.5677 3.21097 41.8265 3.21097C42.0852 3.21097 42.3062 3.10865 42.4893 2.901C42.6725 2.69637 42.7655 2.44659 42.7655 2.15769C42.7655 1.9681 42.7248 1.79356 42.6405 1.63106C42.5562 1.47156 42.4428 1.34216 42.3003 1.25188C42.1579 1.15859 42.0009 1.11345 41.8294 1.11345C41.6578 1.11345 41.5008 1.15859 41.3584 1.25188C41.2159 1.34517 41.0996 1.47156 41.0182 1.63106C40.9339 1.79356 40.8932 1.9681 40.8932 2.15769C40.8932 2.44659 40.9863 2.69637 41.1694 2.901" fill="#C39B54"/>
<path d="M46.5042 0.647054H46.8793V3.67747H46.3007V2.16076L45.5914 3.67747H45.1698L44.4633 2.16076V3.67747H43.8848V0.647054H44.2569L45.382 2.94018L46.5042 0.647054Z" fill="#C39B54"/>
<path d="M3.0933 42.3205V40.7616H4.16026V45.1793H3.0933V43.2895H1.06114V45.1793H0V40.7616H1.06114V42.3205H3.0933Z" fill="#C39B54"/>
<path d="M8.73046 41.3695V40.7586H9.79451V45.1763H8.73046V44.5564C8.57346 44.7761 8.37867 44.9536 8.14319 45.0891C7.9077 45.2245 7.64314 45.2907 7.34661 45.2907C6.93959 45.2907 6.56165 45.1854 6.21569 44.9777C5.86973 44.7701 5.59645 44.4842 5.39294 44.1261C5.19234 43.768 5.09058 43.3768 5.09058 42.9554C5.09058 42.5341 5.19234 42.1429 5.39294 41.7848C5.59354 41.4267 5.86682 41.1408 6.21569 40.9332C6.56165 40.7255 6.93959 40.6202 7.34661 40.6202C7.64314 40.6202 7.91352 40.6924 8.15482 40.8369C8.39903 40.9813 8.5909 41.1589 8.73336 41.3665M7.34661 44.3217C7.67222 44.3217 7.95422 44.1893 8.1868 43.9214C8.42229 43.6536 8.53858 43.3316 8.53858 42.9554C8.53858 42.5793 8.42229 42.2573 8.1868 41.9894C7.95422 41.7216 7.67222 41.5892 7.34661 41.5892C7.02099 41.5892 6.73318 41.7216 6.5006 41.9864C6.26802 42.2513 6.15173 42.5763 6.15173 42.9554C6.15173 43.3346 6.26802 43.6596 6.5006 43.9245C6.73318 44.1893 7.01518 44.3247 7.34661 44.3247" fill="#C39B54"/>
<path d="M17.9057 41.21C17.9057 41.511 17.8563 41.7788 17.7545 42.0165C17.6528 42.2543 17.5132 42.4439 17.3359 42.5943C17.1586 42.7448 16.9521 42.8591 16.7225 42.9434C16.4928 43.0247 16.2399 43.0758 15.9637 43.0909H14.9461V45.1824H13.8181V39.275H15.9026C16.2835 39.275 16.6236 39.3503 16.9231 39.5037C17.2254 39.6572 17.4638 39.8799 17.6411 40.1748C17.8185 40.4697 17.9086 40.8158 17.9086 41.213M14.9461 42.0737H15.7049C15.8968 42.0737 16.0654 42.0496 16.205 41.9985C16.3474 41.9473 16.4521 41.8901 16.5248 41.8239C16.5945 41.7577 16.6498 41.6765 16.6905 41.5862C16.7312 41.4929 16.7544 41.4207 16.7632 41.3635C16.7719 41.3063 16.7777 41.2492 16.7777 41.189C16.7777 41.1288 16.7719 41.0686 16.7632 41.0114C16.7544 40.9512 16.7283 40.876 16.6905 40.7827C16.6498 40.6894 16.5945 40.6082 16.5248 40.5419C16.455 40.4757 16.3474 40.4156 16.205 40.3644C16.0625 40.3132 15.8968 40.2892 15.7049 40.2892H14.9461V42.0737Z" fill="#C39B54"/>
<path d="M19.4145 40.9482C19.7605 40.7406 20.1384 40.6383 20.5454 40.6383C20.9525 40.6383 21.3304 40.7406 21.6764 40.9482C22.0223 41.1559 22.2985 41.4387 22.4991 41.7938C22.6997 42.152 22.8015 42.5402 22.8015 42.9645C22.8015 43.3888 22.6997 43.777 22.4991 44.1351C22.2985 44.4932 22.0252 44.7761 21.6764 44.9868C21.3304 45.1944 20.9525 45.2997 20.5454 45.2997C20.1384 45.2997 19.7605 45.1944 19.4145 44.9868C19.0686 44.7791 18.7953 44.4962 18.5918 44.1351C18.3912 43.777 18.2894 43.3858 18.2894 42.9645C18.2894 42.5432 18.3912 42.152 18.5918 41.7938C18.7924 41.4357 19.0657 41.1529 19.4145 40.9482ZM20.5454 44.3307C20.8711 44.3307 21.1531 44.1983 21.3856 43.9305C21.6182 43.6627 21.7374 43.3407 21.7374 42.9645C21.7374 42.5883 21.6211 42.2663 21.3856 41.9985C21.1502 41.7306 20.8711 41.5982 20.5454 41.5982C20.2198 41.5982 19.9349 41.7307 19.7053 41.9955C19.4727 42.2603 19.3564 42.5853 19.3564 42.9645C19.3564 43.3437 19.4727 43.6687 19.7053 43.9335C19.9378 44.1983 20.2169 44.3307 20.5454 44.3307Z" fill="#C39B54"/>
<path d="M26.9908 41.3394V40.7375H28.0462V44.6256H28.0374C28.0142 45.1282 27.8892 45.5615 27.6624 45.9226C27.4356 46.2838 27.1333 46.5546 26.7583 46.7322C26.3832 46.9097 25.95 47 25.4645 47C25.1476 47 24.8278 46.9458 24.5051 46.8345C24.1824 46.7231 23.9033 46.5666 23.665 46.365V45.083C23.7464 45.1914 23.8365 45.2907 23.9353 45.387C24.0371 45.4833 24.1592 45.5826 24.3104 45.6849C24.4586 45.7872 24.6331 45.8715 24.8337 45.9317C25.0343 45.9919 25.2436 46.025 25.4645 46.025C25.9297 46.025 26.2931 45.8926 26.5577 45.6277C26.8193 45.3629 26.9618 44.9958 26.9821 44.5263C26.8426 44.737 26.6507 44.9145 26.4094 45.059C26.1652 45.2034 25.8948 45.2787 25.5954 45.2787C25.1883 45.2787 24.8104 45.1733 24.4644 44.9657C24.1185 44.758 23.8423 44.4752 23.6417 44.114C23.4411 43.7559 23.3393 43.3647 23.3393 42.9434C23.3393 42.5221 23.4411 42.1309 23.6417 41.7728C23.8423 41.4146 24.1185 41.1288 24.4644 40.9211C24.8104 40.7135 25.1883 40.6081 25.5954 40.6081C25.8919 40.6081 26.1565 40.6743 26.3919 40.8098C26.6274 40.9422 26.8251 41.1197 26.9879 41.3394M25.5954 44.3096C25.9268 44.3096 26.2088 44.1772 26.4414 43.9094C26.6739 43.6446 26.7902 43.3196 26.7902 42.9404C26.7902 42.5612 26.6739 42.2362 26.4414 41.9684C26.2088 41.7005 25.9268 41.5681 25.5983 41.5681C25.2697 41.5681 24.9878 41.7005 24.7581 41.9684C24.5255 42.2362 24.4092 42.5582 24.4092 42.9404C24.4092 43.3226 24.5255 43.6446 24.7581 43.9094C24.9907 44.1742 25.2697 44.3096 25.5983 44.3096" fill="#C39B54"/>
<path d="M32.3838 42.3205V40.7616H33.4507V45.1793H32.3838V43.2895H30.3545V45.1793H29.2905V40.7616H30.3545V42.3205H32.3838Z" fill="#C39B54"/>
<path d="M36.6138 45.2937C36.3463 45.2937 36.1021 45.2546 35.8841 45.1734C35.666 45.0921 35.4829 44.9868 35.3375 44.8484C35.1921 44.7129 35.07 44.5504 34.9712 44.3669C34.8723 44.1833 34.8026 43.9877 34.759 43.7831C34.7154 43.5784 34.695 43.3648 34.695 43.1421V40.7436H35.762V43.118C35.762 43.4911 35.8521 43.7861 36.0323 44.0088C36.2126 44.2315 36.4597 44.3398 36.7737 44.3398C37.0702 44.3398 37.3144 44.2284 37.5034 44.0027C37.6953 43.777 37.7912 43.4821 37.7912 43.118V40.7436H38.8582V45.1704H37.7912V44.734C37.7244 44.8032 37.6575 44.8664 37.5935 44.9176C37.5296 44.9687 37.4482 45.0289 37.3522 45.0921C37.2534 45.1553 37.14 45.2065 37.015 45.2396C36.89 45.2727 36.7562 45.2907 36.6196 45.2907" fill="#C39B54"/>
<path d="M41.2276 45.1793H40.1722V38.965H41.2276V45.1793ZM44.2249 40.7616L42.5038 42.6605L44.6116 45.1793H43.2132L41.4543 43.0126V42.2723L42.783 40.7586H44.222L44.2249 40.7616Z" fill="#C39B54"/>
<path d="M45.696 40.9482C46.042 40.7406 46.4199 40.6383 46.8269 40.6383C47.2339 40.6383 47.6119 40.7406 47.9578 40.9482C48.3038 41.1559 48.58 41.4387 48.7806 41.7938C48.9812 42.152 49.0829 42.5402 49.0829 42.9645C49.0829 43.3888 48.9812 43.777 48.7806 44.1351C48.58 44.4932 48.3067 44.7761 47.9578 44.9868C47.6119 45.1944 47.2339 45.2997 46.8269 45.2997C46.4199 45.2997 46.042 45.1944 45.696 44.9868C45.35 44.7791 45.0768 44.4962 44.8733 44.1351C44.6727 43.777 44.5709 43.3858 44.5709 42.9645C44.5709 42.5432 44.6727 42.152 44.8733 41.7938C45.0739 41.4357 45.35 41.1529 45.696 40.9482ZM46.8269 44.3307C47.1525 44.3307 47.4345 44.1983 47.6671 43.9305C47.8997 43.6627 48.0189 43.3407 48.0189 42.9645C48.0189 42.5883 47.9026 42.2663 47.6671 41.9985C47.4316 41.7306 47.1525 41.5982 46.8269 41.5982C46.5013 41.5982 46.2164 41.7307 45.9867 41.9955C45.7541 42.2603 45.6379 42.5853 45.6379 42.9645C45.6379 43.3437 45.7541 43.6687 45.9867 43.9335C46.2193 44.1983 46.4984 44.3307 46.8269 44.3307Z" fill="#C39B54"/>
<path d="M52.7374 41.6615C52.8304 41.6885 52.9176 41.7186 52.999 41.7517C53.0804 41.7849 53.1822 41.845 53.3043 41.9293C53.4264 42.0136 53.531 42.1099 53.6154 42.2212C53.6997 42.3295 53.7753 42.48 53.8363 42.6636C53.9003 42.8502 53.9322 43.0578 53.9322 43.2895C53.9322 43.6657 53.8421 44.0088 53.6648 44.3157C53.4874 44.6227 53.2432 44.8604 52.9409 45.0319C52.6356 45.2035 52.3013 45.2877 51.9379 45.2877C51.7257 45.2877 51.5221 45.2606 51.3274 45.2095C51.1326 45.1583 50.9494 45.0801 50.7808 44.9717C50.6122 44.8634 50.4639 44.734 50.3389 44.5775C50.2139 44.424 50.1179 44.2345 50.0453 44.0118C49.9726 43.7891 49.9377 43.5483 49.9377 43.2865V40.5992C49.9377 40.3494 49.9726 40.1267 50.0394 39.9251C50.1063 39.7234 50.1993 39.5579 50.3127 39.4285C50.4261 39.2991 50.5598 39.1908 50.7139 39.1035C50.868 39.0162 51.025 38.9561 51.1849 38.9199C51.3448 38.8838 51.5134 38.8658 51.6879 38.8658C51.9931 38.8658 52.2751 38.935 52.5426 39.0734C52.81 39.2119 53.0252 39.4105 53.1909 39.6663C53.3566 39.9251 53.4409 40.214 53.4409 40.533C53.4409 40.9874 53.2083 41.3635 52.7432 41.6615M51.9437 44.3338C52.1908 44.3338 52.4089 44.2405 52.5949 44.0569C52.781 43.8733 52.874 43.6236 52.874 43.3106C52.874 43.1029 52.8159 42.9224 52.6967 42.7629C52.5804 42.6034 52.4321 42.486 52.2577 42.4108C52.0803 42.3356 51.8972 42.2964 51.7024 42.2964H51.3012V41.3304H51.5716C51.7809 41.3304 51.9699 41.2612 52.1327 41.1258C52.2984 40.9904 52.3798 40.8098 52.3798 40.5841C52.3798 40.3825 52.3129 40.2049 52.1821 40.0545C52.0513 39.904 51.8885 39.8258 51.6966 39.8258C51.5192 39.8258 51.3622 39.889 51.2227 40.0153C51.0832 40.1417 51.0134 40.3163 51.0134 40.539V43.3497C51.0134 43.6838 51.1064 43.9305 51.2896 44.09C51.4756 44.2525 51.6937 44.3308 51.9466 44.3308" fill="#C39B54"/>
<path d="M55.5981 40.9482C55.944 40.7406 56.322 40.6383 56.729 40.6383C57.136 40.6383 57.514 40.7406 57.8599 40.9482C58.2059 41.1559 58.4821 41.4387 58.6827 41.7938C58.8833 42.152 58.985 42.5402 58.985 42.9645C58.985 43.3888 58.8833 43.777 58.6827 44.1351C58.4821 44.4932 58.2088 44.7761 57.8599 44.9868C57.514 45.1944 57.136 45.2997 56.729 45.2997C56.322 45.2997 55.944 45.1944 55.5981 44.9868C55.2521 44.7791 54.9788 44.4962 54.7753 44.1351C54.5747 43.777 54.473 43.3858 54.473 42.9645C54.473 42.5432 54.5747 42.152 54.7753 41.7938C54.9759 41.4357 55.2521 41.1529 55.5981 40.9482ZM56.729 44.3307C57.0546 44.3307 57.3366 44.1983 57.5692 43.9305C57.8018 43.6627 57.921 43.3407 57.921 42.9645C57.921 42.5883 57.8047 42.2663 57.5692 41.9985C57.3337 41.7306 57.0546 41.5982 56.729 41.5982C56.4034 41.5982 56.1185 41.7307 55.8888 41.9955C55.6562 42.2603 55.5399 42.5853 55.5399 42.9645C55.5399 43.3437 55.6562 43.6687 55.8888 43.9335C56.1214 44.1983 56.4005 44.3307 56.729 44.3307Z" fill="#C39B54"/>
<path d="M61.7585 45.3088C61.491 45.3088 61.2468 45.2697 61.0288 45.1884C60.8107 45.1072 60.6276 45.0018 60.4822 44.8664C60.3369 44.731 60.2148 44.5715 60.1159 44.3849C60.0171 44.1983 59.9473 44.0027 59.9037 43.7981C59.8601 43.5935 59.8397 43.3768 59.8397 43.1511V40.7526H60.9067V43.133C60.9067 43.5032 60.9968 43.7981 61.1771 44.0178C61.3573 44.2375 61.6044 44.3488 61.9155 44.3488C62.2266 44.3488 62.4562 44.2375 62.6452 44.0118C62.8371 43.7891 62.933 43.4942 62.933 43.133V40.7526H64V45.1794H62.933V44.7521C62.8604 44.8243 62.7935 44.8875 62.7324 44.9356C62.6714 44.9868 62.5929 45.044 62.4941 45.1072C62.3952 45.1704 62.2818 45.2215 62.1568 45.2576C62.0318 45.2938 61.8981 45.3118 61.7614 45.3118M62.7266 39.3623L62.9999 39.26V40.1357L62.8836 40.1899C62.6161 40.3133 62.2964 40.3735 61.9271 40.3735C61.5579 40.3735 61.2323 40.3103 60.9619 40.1899L60.8485 40.1357V39.242L61.1247 39.3593C61.3777 39.4676 61.6451 39.5218 61.9271 39.5218C62.2091 39.5218 62.4679 39.4676 62.7295 39.3593" fill="#C39B54"/>
</svg>
